<?xml version="1.0" encoding="utf-8"?>
<!-- Generator: Adobe Illustrator 25.1.0, SVG Export Plug-In . SVG Version: 6.00 Build 0)  -->
<svg version="1.1" id="Camada_1" xmlns="http://www.w3.org/2000/svg" xmlns:xlink="http://www.w3.org/1999/xlink" x="0px" y="0px"
	 viewBox="0 0 512 512" style="enable-background:new 0 0 512 512;" xml:space="preserve">
<style type="text/css">
	.st0{fill:url(#SVGID_1_);}
	.st1{fill:url(#SVGID_2_);}
	.st2{fill:url(#SVGID_3_);}
	.st3{fill:#0A8955;}
	.st4{fill:#0A7A4A;}
	.st5{fill:url(#SVGID_4_);}
	.st6{fill:url(#SVGID_5_);}
	.st7{fill:url(#SVGID_6_);}
	.st8{fill:url(#SVGID_7_);}
	.st9{fill:url(#SVGID_8_);}
</style>
<g>
	
		<linearGradient id="SVGID_1_" gradientUnits="userSpaceOnUse" x1="44.5957" y1="456.4881" x2="62.2173" y2="442.5379" gradientTransform="matrix(1 0 0 -1 0 514)">
		<stop  offset="0" style="stop-color:#FDC830"/>
		<stop  offset="1" style="stop-color:#F37335"/>
	</linearGradient>
	<path class="st0" d="M30.8,75h455v303.3h-455L30.8,75z"/>
	
		<linearGradient id="SVGID_2_" gradientUnits="userSpaceOnUse" x1="-27.5793" y1="364.9283" x2="-9.9578" y2="350.9781" gradientTransform="matrix(1 0 0 -1 0 514)">
		<stop  offset="0" style="stop-color:#FDC830"/>
		<stop  offset="1" style="stop-color:#F37335"/>
	</linearGradient>
	<path class="st1" d="M16.1,368.4h484.2v13.9H16.1L16.1,368.4z"/>
	
		<linearGradient id="SVGID_3_" gradientUnits="userSpaceOnUse" x1="228.4143" y1="530.0778" x2="282.9303" y2="8.0442" gradientTransform="matrix(1 0 0 -1 0 514)">
		<stop  offset="0" style="stop-color:#FDC830"/>
		<stop  offset="1" style="stop-color:#F37335"/>
	</linearGradient>
	<path class="st2" d="M26.3,75h455v303.3h-455V75z"/>
	<path class="st3" d="M42,90.8h423.5v280.2H42V90.8z"/>
	<path class="st4" d="M46.9,96.3h418.5v-5.5H42v280.2h4.9L46.9,96.3z"/>
	
		<linearGradient id="SVGID_4_" gradientUnits="userSpaceOnUse" x1="253.7555" y1="153.6942" x2="253.7555" y2="130.0162" gradientTransform="matrix(1 0 0 -1 0 514)">
		<stop  offset="0" style="stop-color:#FDC830"/>
		<stop  offset="1" style="stop-color:#F37335"/>
	</linearGradient>
	<path class="st5" d="M11.6,368.4h484.2v13.9H11.6L11.6,368.4z"/>
	
		<linearGradient id="SVGID_5_" gradientUnits="userSpaceOnUse" x1="352.3494" y1="180.4927" x2="355.5163" y2="176.7659" gradientTransform="matrix(1 0 0 -1 0 514)">
		<stop  offset="0" style="stop-color:#FDC830"/>
		<stop  offset="1" style="stop-color:#F37335"/>
	</linearGradient>
	<path class="st6" d="M396.9,363.7h-50.2v-12.3c0-3.2,2.6-5.7,5.7-5.7h38.7c3.2,0,5.7,2.6,5.7,5.7L396.9,363.7z"/>
	
		<linearGradient id="SVGID_6_" gradientUnits="userSpaceOnUse" x1="353.1033" y1="167.6742" x2="356.7746" y2="163.8192" gradientTransform="matrix(1 0 0 -1 0 514)">
		<stop  offset="0" style="stop-color:#F3F7FF"/>
		<stop  offset="1" style="stop-color:#CDD9FF"/>
	</linearGradient>
	<path class="st7" d="M346.8,363.7h50.2v4.7h-50.2V363.7z"/>
	
		<linearGradient id="SVGID_7_" gradientUnits="userSpaceOnUse" x1="369.2287" y1="193.3424" x2="369.2287" y2="156.247" gradientTransform="matrix(1 0 0 -1 0 514)">
		<stop  offset="0" style="stop-color:#FDC830"/>
		<stop  offset="1" style="stop-color:#F37335"/>
	</linearGradient>
	<path class="st8" d="M391.7,363.7h-44.9v-12.3c0-3.2,2.6-5.7,5.7-5.7H386c3.2,0,5.7,2.6,5.7,5.7V363.7z"/>
	
		<linearGradient id="SVGID_8_" gradientUnits="userSpaceOnUse" x1="369.0169" y1="154.7461" x2="369.3721" y2="143.3967" gradientTransform="matrix(1 0 0 -1 0 514)">
		<stop  offset="0" style="stop-color:#F3F7FF"/>
		<stop  offset="1" style="stop-color:#CDD9FF"/>
	</linearGradient>
	<path class="st9" d="M346.8,363.7h44.9v4.7h-44.9V363.7z"/>
</g>
</svg>
